# xmcd
#
# Track frame offsets:
#	150
#	13960
#	29970
#	44458
#	59073
#	75258
#	87894
#	104004
#	116961
#	137601
#	162861
#	191208
#	206190
#	236741
#	249607
#	266370
#	280104
#	293280
#	304803
#	321873
#
# Disc length: 4640 seconds
#
# Revision: 1
# Processed by: cddbd v1.5.2PL0 Copyright (c) Steve Scherf et al.
# Submitted via: audiograbber 1.83.01
#
DISCID=2f121e14
DTITLE=Various Artist - VA - Summer Heat 2008 - CD 1 - 2
DYEAR=2008
DGENRE=Dance
TTITLE0=Velvet - Déjà Vu
TTITLE1=2-4 Grooves - Writing On The Wall
TTITLE2=Richard Gray - Thriller
TTITLE3=United DJ's VS. Pandora - On A Night Like This ( JS16 Radio Edit )
TTITLE4=Fragma - Tocas Miracle ( Richard Durand Remix Edit )
TTITLE5=Cascada - What Do You Want From Me¿
TTITLE6=DCX - Fortune and Fate
TTITLE7=Ivory - Ghostbusters
TTITLE8=Cuba Club - La Cumbia ( Ivory Radio Mix )
TTITLE9=Armin Van Buuren - Going Wrong
TTITLE10=Tiesto - Dance4Life ( Fonzerelli Remix )
TTITLE11=Yanou Feat. Mark Daviz - A Girl Like You
TTITLE12=Marc Sinclair - Eletric Sun ( Original Club Mix )
TTITLE13=Natural Born Grooves - Groovebird 2008 ( Michael Houston Remix Radio )
TTITLE14=Disconnexxion - The House Transmission
TTITLE15=Fundo Feat. Elena Josepha - Awesome ( Pete B. Radio Edit )
TTITLE16=Blogbusters - Forever Young
TTITLE17=Roy Gates - Hey
TTITLE18=Scooter - The Question Is What Is The Question
TTITLE19=DJ Proteus - Illuminati
EXTD=VA - Summer Heat 2008 - CD 1 - 2
EXTT0=
EXTT1=
EXTT2=
EXTT3=
EXTT4=
EXTT5=
EXTT6=
EXTT7=
EXTT8=
EXTT9=
EXTT10=
EXTT11=
EXTT12=
EXTT13=
EXTT14=
EXTT15=
EXTT16=
EXTT17=
EXTT18=
EXTT19=
PLAYORDER=
